<?xml version='1.0' encoding='UTF-8'?>
<svg xmlns="http://www.w3.org/2000/svg" viewBox="0 0 150 150" role="img" aria-labelledby="capybara-title capybara-desc" shape-rendering="geometricPrecision">
<title id="capybara-title">Puzzle-piece capybara mascot — Cream separators</title><desc id="capybara-desc">Soft sticker-like separation for dark backgrounds</desc><!-- SVG created with Arrow, by QuiverAI (https://quiver.ai) -->
  <style type="text/css">.cls-0 {fill:#80543F;}
.cls-1 {fill:#7A9272;}
.cls-2 {fill:#C47C46;}
.cls-3 {fill:#B09A4A;}
.cls-4 {fill:#5D8B88;}
.cls-5 {fill:#B75B49;}
.cls-6 {fill:#7B5D69;}
.cls-7 {fill:#B75B49;}
.cls-8 {fill:#6D7F95;}
.cls-9 {fill:#895A3F;}
.cls-10 {fill:#C37A43;}
.cls-11 {fill:#33231D;}
.cls-12 {fill:none;stroke:#34231D;stroke-width:1.6011;stroke-linecap:round;stroke-miterlimit:10;}
.cls-13 {fill:#34231D;}
.cls-14 {fill:#34231D;}
.cls-15 {fill:#884D31;}
.mascot-shape {stroke:#F4EBDD;stroke-width:2.8;stroke-linejoin:round;stroke-linecap:round;paint-order:stroke fill;}}</style>
  <path class="cls-0 mascot-shape" d="m46.6 26.7c-0.3-1.8-1.7-5.3-4.2-5.3-1.8 0.1-4 2.6-4 6.1l8.2-0.8z"/>
  <path class="cls-1 mascot-shape" d="m48.9 93.4c1.7 7.9 2.8 15 3.5 23.9 0.3 4.6-6.1 4.1-6 8.7 0.1 1.9 1.5 2.5 2.3 2.5h8.4c2.6 0 4.4-1.6 5-5l3.2-18.5c0.2-1-1.1-3.4-3.2-4-4.1-1.1-8.7-3.2-13.2-7.6z"/>
  <path class="cls-2 mascot-shape" d="m134.3 72.5c-1.2 0-0.8 0.6-0.1 1.9 0.9 3.1-1.4 6-4.5 6-3.7 0.1-6.2-3.7-4.3-6.8 0.2-0.4 0.3-1.1-0.3-1.1h-9.2v3.9c0 3-0.1 5.6-0.5 7-0.5 1.1-1.9 1.2-2.6 0.5-4.1-3-7.9 3.1-4 5.4 2.1 1 2.8-0.6 4.2-0.3s1.4 1.6 1.3 2.1c-1.1 8.1 3.4 14.2 9.8 18.2l2.9 1.9c0.4 0.8 1.3 2.6 0.9 5.1-0.4 3.7 0.1 4-2.5 5-2.2 0.8-4.2 2.6-4.3 4.7 0 1.2 0.9 2.5 2.3 2.4h9.4c2.6 0 4.3-1.7 4.9-4.2l3.1-11.2c0.8-2.1 0.3-4.4-0.5-5.7-3.6-5.6-2.8-9.8-0.6-15.3 1.8-4.7 4.2-12.5 3.7-19.5h-9.1z"/>
  <path class="cls-0 mascot-shape" d="m99.6 103c1 2.1 3.9 5.6 6.1 7.2 1.1 0.9 3.2 1.8 2.6 5.6l-0.9 3.9c-0.6 1.4-2 1.4-2.9 1.9-1.8 1-3.6 2.5-3.5 4.7 0.1 1.4 1.1 2.2 2 2.2h8.9c2.7 0 4.2-1 5-2.9l4.1-10c0.7-1.8 0.9-2.8 0.8-4.8-2.9-2-6.3-5.6-7.9-10-4.1 0.9-8.8 1.8-14.3 2.2z"/>
  <path class="cls-3 mascot-shape" d="m116 41.1v10.5c0 0.4 0.6 0.4 1 0.1 0.8-0.6 1.5-0.7 2.1-0.7 5.5 0.1 6.4 7.5 1.8 10.1-1 0.5-2.8 0.6-4.3-0.4-0.2-0.2-0.6-0.3-0.6 0.4v9.8h9.3c1.8 0.1 2.6 1.9 1.5 3.2-0.9 1.7 0.2 5.1 3.2 4.9 2.1-0.1 4-2.5 2.7-4.7-0.9-1.1-0.4-3.4 1.3-3.4h9.4c-0.8-6.9-3.6-15.9-10-21.3-4.9-4.2-9.7-7.1-17.4-8.5z"/>
  <path class="cls-4 mascot-shape" d="m86.9 42.5v9c0 0.5 0.5 0.6 0.7 0.4 1-0.7 1.7-0.9 2.8-0.8 5.2 0.3 6.2 7.3 1.9 9.8-1.4 0.7-2.9 0.9-4.8-0.2-0.3-0.2-0.6-0.1-0.6 0.2v10h9.3c1.7 0 2.5 1.5 1.8 3-1.6 2.6 0.5 5.5 3 5 2.6 0 3.9-2.8 2.5-4.9-0.7-1.6 0.1-3.1 1.4-3.1h9.6v-9.9c0-1.9 1.7-2.6 3-1.8 4.1 2.5 7-3.8 3-6.2-0.7-0.2-1.7-0.5-3 0.5-1.1 0.7-3 0.2-3-1.5v-11.2c-5.5-0.9-13-0.8-20.1 0.3l-7.5 1.4z"/>
  <path class="cls-1 mascot-shape" d="m66.8 39.2c3 2.7 5.7 4.4 10 4.5 2.7 0 5.6-0.4 8.5-0.8v9c0 1.6 1.7 2.2 3.1 1.3 1.7-1.1 4.7-0.2 4.8 2.9 0 2.5-2.6 4.8-5.1 3.1-1.3-0.7-2.9-0.1-2.9 1.7v10h-8.6c-0.4-0.1-0.3-0.5 0-1 2.1-3.8-1-7.2-4.2-7-3.8 0-6 4.1-4.3 6.8 0.3 0.7 0.4 1.1-0.1 1.2h-8-0.1-1l-8-8 0.9-1c1.2-1 1.6-2.9-0.7-3.8-4.3-0.6-3.5-7.1 0.5-7 1.5 0 2.9 0.9 3.4 2.5 0.5 1.3 2 1.9 3 0.9 1.5-1.7 6.3-7.9 8.8-14.1v-1.2z"/>
  <path class="cls-5 mascot-shape" d="m68.1 85.6c0.4 3.9-3.2 6-6.2 4.5-0.9-0.5-1.5-0.7-1.4-0.1 0 3.1 0.9 6.5 2.1 9.5 1.8 0.6 3.5 2.1 4.2 4.6 0.8 3.1 2.1 12.5 2.2 14.4 0 3.6-4.9 3.9-4.8 7.3 0.1 1.8 1.2 2.7 2.4 2.7h8.8c2 0 3.5-1.6 4-4s2.2-16.5 2.7-19.6c0.3-2 1.7-2.9 3.1-3.2v-11.8c0-0.5-0.3-0.5-1.1 0-2.6 1.5-6.7-0.3-6.6-4.3h-9.4z"/>
  <path class="cls-6 mascot-shape" d="m86.9 72.5v9c0 1.4-1.5 2.4-3 1.4-3.5-2-6.4 2.1-3.9 5.1 0.9 0.9 2.4 1.5 3.7 0.5 1.7-1 3.2-0.1 3.1 1.5l0.1 11.5c8.5 0.4 16.7 0 26.5-2.4-0.8-3.2-0.9-4.9-0.6-8.1 0.1-0.5-0.2-0.6-0.9-0.1-2.5 1-6.8-0.9-6.4-5 0.4-3.5 4.6-5.9 7.6-3.5 0.4 0.3 0.8 0.1 0.9-0.3 0.5-3.1 0.5-6.5 0.5-9.6h-9.5c-0.5 0-0.5 0.4-0.2 0.9 2.3 3.6-1.4 8-5.3 6.8-3.4-0.7-4.9-4.7-3.1-7.1 0.2-0.2 0.1-0.6-0.3-0.6h-9.2z"/>
  <path class="cls-7 mascot-shape" d="m60.4 72.5v8.9c0 0.2 0.2 0.2 0.6 0 3.1-1.9 6.9 0 7.1 4.2h9.3c0-4.1 4.1-6.1 6.6-4.2 0.5 0.2 1.2 0.8 1.2 0.1v-9h-8.6c-1.4 0-2.6-2-1.6-3.5 1.6-2.6-1.1-5.1-3.5-4.5-2 0.5-3.4 2.9-2 5 0.9 1.5 0 3-1.4 3h-7.7z"/>
  <path class="cls-8 mascot-shape" d="m37.8 70.5c2.7 4 4.8 13.5 10.1 19.5 3.5 4 7.3 6.9 12.8 8.9-1.1-2.5-2.1-7.3-1.9-9.4 0.3-1.4 1.8-2 3.2-1.1 4 2.2 6.6-3.8 3.4-5.7-1-0.6-2-0.6-3 0-1.7 1.3-3.6 0.4-3.6-1.3l-0.1-9.4-9.1-8.5c-2.7 2.4-7.1 5.1-11.8 7z"/>
  <path class="cls-10 mascot-shape" d="m21.4 32.9c3.1 1.1 7.2 4.7 8.6 13.5 0.1 0.5 0.1 0.5 0.6 0.1 1.8-1.9 6.8-1.6 7.6 3 0.7 4.1-3.2 7.7-7.1 6-0.4-0.1-0.5 0-0.5 0.4 0.4 3.6-0.4 8.6-1.7 10.7 3-0.2 5.3 0.4 8 2.6 4.2-1.3 9.9-4.7 14-8.6 0.5-0.6 0.5-0.8-0.5-1-2.8-0.9-4.5-4.2-3.3-7 1.9-4.1 7.5-5 9.4-0.2 0.4 1.3 0.5 0.8 1 0.2 3.6-4.6 6.6-9.5 8.2-14.5-1.9-1.7-4.1-4.4-7.2-6.7 2.1-4.4 0.5-8.9-2.1-9.2-2.3-0.3-5 1.8-6.5 5-1.3-0.3-2.3-0.5-3.3-0.5-4.5-0.1-10.4 1-14.5 2.3-2.5 0.7-8.1 2.4-10.7 3.6v0.3z"/>
  <path d="m19.4 33.7c-5.9 2.7-12.9 6.9-13 13.2-0.2 6 2 15 7.1 18.1 3.5 2.4 8.4 2 13.6 1.8 1.8-2.2 2.5-7.2 2-10.9 0-1.4 1.5-2.4 3-1.8 4 1.9 6.5-3.5 3.9-6-0.9-0.9-2.5-1.4-4.5-0.1-1.5 1-2.9 0-3-1.5-0.9-6.4-3.5-11.3-9.1-12.8z" fill="#8C6049" class="mascot-shape"/>
  <path class="cls-11" d="m14.1 48.6c-0.2-3.5 3.3-5 3.6-3 0.4 1.6-3.7 3-3.6 3z"/>
  <path class="cls-12" d="m12 57.6 0.5 2.3c0.1 1.8-1.9 1.8-2.5 1.5"/>
  <path class="cls-13" d="m7.8 44.8c-1.2 0.3-1 2.4 0 3.1 1.2 0.7 1.2 1.1 1.3 0.1 0.3-1.1-0.5-3.1-1.3-3.2z"/>
  <path class="cls-14" d="m41.6 35.9c-1.4 0-2.7 1.2-2.6 2.7 0 1.4 1.1 2.4 2.6 2.4 1.3 0 2.6-1.1 2.6-2.5 0.2-1.5-1.3-2.6-2.6-2.6z"/>
  <path class="cls-12" d="m12.2 57.6c0.4 2 1.2 4.3 4.3 4.5 2.5 0.1 4.5-1.5 4.9-2.6"/>
  <path class="cls-15" d="m11 62.9"/>
</svg>
